<?xml version="1.0" encoding="UTF-8"?>
<svg xmlns="http://www.w3.org/2000/svg" viewBox="0 0 909 783">
  <title>HAX logo</title>
  <path fill="#000000" fill-rule="evenodd" d="M454,1L456,1L456,2L457,2L457,3L459,3L459,4L460,4L460,5L462,5L462,6L463,6L463,7L465,7L465,8L466,8L466,9L468,9L468,10L469,10L469,11L471,11L471,12L473,12L473,13L474,13L474,14L476,14L476,15L477,15L477,16L479,16L479,17L480,17L480,18L482,18L482,19L483,19L483,20L485,20L485,21L486,21L486,22L488,22L488,23L489,23L489,24L491,24L491,25L492,25L492,26L494,26L494,27L496,27L496,28L497,28L497,29L499,29L499,30L500,30L500,31L502,31L502,32L503,32L503,33L505,33L505,34L506,34L506,35L508,35L508,36L509,36L509,37L511,37L511,38L513,38L513,39L514,39L514,40L516,40L516,41L517,41L517,42L519,42L519,43L520,43L520,44L522,44L522,45L523,45L523,46L525,46L525,47L527,47L527,48L528,48L528,49L530,49L530,50L531,50L531,51L533,51L533,52L534,52L534,53L536,53L536,54L537,54L537,55L539,55L539,56L541,56L541,57L542,57L542,58L544,58L544,59L545,59L545,60L547,60L547,61L548,61L548,62L550,62L550,63L551,63L551,64L553,64L553,65L554,65L554,66L556,66L556,67L557,67L557,68L559,68L559,69L561,69L561,70L562,70L562,71L564,71L564,72L565,72L565,73L567,73L567,74L568,74L568,75L570,75L570,76L571,76L571,77L573,77L573,78L574,78L574,79L576,79L576,80L578,80L578,81L579,81L579,82L581,82L581,83L582,83L582,84L584,84L584,85L585,85L585,86L587,86L587,87L588,87L588,88L590,88L590,89L591,89L591,90L593,90L593,91L595,91L595,92L596,92L596,93L597,93L597,94L599,94L599,95L601,95L601,96L602,96L602,97L604,97L604,98L605,98L605,99L607,99L607,100L608,100L608,101L610,101L610,102L612,102L612,103L613,103L613,104L615,104L615,105L616,105L616,106L618,106L618,107L619,107L619,108L621,108L621,109L622,109L622,110L624,110L624,111L625,111L625,725L624,725L624,726L622,726L622,727L620,727L620,728L619,728L619,729L617,729L617,730L615,730L615,731L613,731L613,732L611,732L611,733L610,733L610,734L608,734L608,735L606,735L606,736L604,736L604,737L602,737L602,738L601,738L601,739L599,739L599,740L597,740L597,741L595,741L595,742L594,742L594,743L592,743L592,744L590,744L590,745L588,745L588,746L587,746L587,747L585,747L585,748L583,748L583,749L581,749L581,750L579,750L579,751L578,751L578,752L576,752L576,753L574,753L574,754L572,754L572,755L571,755L571,756L569,756L569,757L567,757L567,758L565,758L565,759L563,759L563,760L562,760L562,761L560,761L560,762L558,762L558,763L556,763L556,764L555,764L555,765L553,765L553,766L551,766L551,767L549,767L549,768L548,768L548,769L546,769L546,770L544,770L544,771L542,771L542,772L540,772L540,773L539,773L539,774L537,774L537,775L535,775L535,776L533,776L533,777L531,777L531,778L530,778L530,779L527,779L527,456L383,456L383,782L381,782L381,781L379,781L379,780L378,780L378,779L376,779L376,778L374,778L374,777L372,777L372,776L371,776L371,775L369,775L369,774L367,774L367,773L366,773L366,772L364,772L364,771L362,771L362,770L360,770L360,769L359,769L359,768L357,768L357,767L355,767L355,766L353,766L353,765L352,765L352,764L350,764L350,763L348,763L348,762L346,762L346,761L345,761L345,760L343,760L343,759L341,759L341,758L340,758L340,757L338,757L338,756L336,756L336,755L334,755L334,754L332,754L332,753L331,753L331,752L329,752L329,751L327,751L327,750L326,750L326,749L324,749L324,748L322,748L322,747L320,747L320,746L318,746L318,745L317,745L317,744L315,744L315,743L313,743L313,742L311,742L311,741L310,741L310,740L308,740L308,739L306,739L306,738L305,738L305,737L303,737L303,736L301,736L301,735L299,735L299,734L298,734L298,733L296,733L296,732L294,732L294,731L292,731L292,730L291,730L291,729L289,729L289,728L287,728L287,110L288,110L288,109L289,109L289,108L291,108L291,107L293,107L293,106L294,106L294,105L296,105L296,104L297,104L297,103L299,103L299,102L300,102L300,101L302,101L302,100L303,100L303,99L305,99L305,98L306,98L306,97L308,97L308,96L309,96L309,95L311,95L311,94L312,94L312,93L314,93L314,92L316,92L316,91L317,91L317,90L319,90L319,89L320,89L320,88L322,88L322,87L323,87L323,86L325,86L325,85L327,85L327,84L328,84L328,83L330,83L330,82L331,82L331,81L333,81L333,80L334,80L334,79L336,79L336,78L337,78L337,77L339,77L339,76L340,76L340,75L342,75L342,74L343,74L343,73L345,73L345,72L346,72L346,71L348,71L348,70L349,70L349,69L351,69L351,68L353,68L353,67L354,67L354,66L356,66L356,65L357,65L357,64L359,64L359,63L360,63L360,62L362,62L362,61L363,61L363,60L365,60L365,59L367,59L367,58L368,58L368,57L370,57L370,56L371,56L371,55L373,55L373,54L374,54L374,53L376,53L376,52L377,52L377,51L379,51L379,50L380,50L380,49L382,49L382,48L383,48L383,47L385,47L385,46L386,46L386,45L388,45L388,44L390,44L390,43L391,43L391,42L393,42L393,41L394,41L394,40L396,40L396,39L397,39L397,38L399,38L399,37L400,37L400,36L402,36L402,35L403,35L403,34L405,34L405,33L406,33L406,32L408,32L408,31L409,31L409,30L411,30L411,29L413,29L413,28L414,28L414,27L416,27L416,26L417,26L417,25L419,25L419,24L420,24L420,23L422,23L422,22L423,22L423,21L425,21L425,20L426,20L426,19L428,19L428,18L429,18L429,17L431,17L431,16L433,16L433,15L434,15L434,14L436,14L436,13L437,13L437,12L439,12L439,11L440,11L440,10L442,10L442,9L443,9L443,8L445,8L445,7L446,7L446,6L448,6L448,5L450,5L450,4L451,4L451,3L453,3L453,2L454,2ZM454,100L454,101L452,101L452,102L451,102L451,103L449,103L449,104L448,104L448,105L446,105L446,106L445,106L445,107L443,107L443,108L442,108L442,109L440,109L440,110L438,110L438,111L437,111L437,112L435,112L435,113L434,113L434,114L433,114L433,115L431,115L431,116L430,116L430,117L428,117L428,118L426,118L426,119L425,119L425,120L423,120L423,121L422,121L422,122L420,122L420,123L419,123L419,124L417,124L417,125L416,125L416,126L414,126L414,127L413,127L413,128L411,128L411,129L410,129L410,130L408,130L408,131L407,131L407,132L405,132L405,133L404,133L404,134L402,134L402,135L401,135L401,136L399,136L399,137L398,137L398,138L396,138L396,139L395,139L395,140L393,140L393,141L392,141L392,142L390,142L390,143L389,143L389,144L387,144L387,145L386,145L386,146L384,146L384,147L383,147L383,362L527,362L527,148L526,148L526,147L525,147L525,146L523,146L523,145L521,145L521,144L520,144L520,143L518,143L518,142L517,142L517,141L515,141L515,140L514,140L514,139L512,139L512,138L511,138L511,137L509,137L509,136L508,136L508,135L506,135L506,134L505,134L505,133L503,133L503,132L502,132L502,131L500,131L500,130L499,130L499,129L497,129L497,128L496,128L496,127L494,127L494,126L493,126L493,125L491,125L491,124L490,124L490,123L488,123L488,122L487,122L487,121L486,121L486,120L484,120L484,119L483,119L483,118L481,118L481,117L479,117L479,116L478,116L478,115L477,115L477,114L475,114L475,113L474,113L474,112L472,112L472,111L471,111L471,110L469,110L469,109L468,109L468,108L466,108L466,107L465,107L465,106L463,106L463,105L462,105L462,104L461,104L461,103L459,103L459,102L458,102L458,101L456,101L456,100ZM662,138L664,138L664,139L665,139L665,140L666,140L666,141L668,141L668,142L670,142L670,143L671,143L671,144L673,144L673,145L674,145L674,146L676,146L676,147L677,147L677,148L679,148L679,149L681,149L681,150L682,150L682,151L684,151L684,152L685,152L685,153L687,153L687,154L688,154L688,155L690,155L690,156L691,156L691,157L693,157L693,158L694,158L694,159L696,159L696,160L697,160L697,161L699,161L699,162L701,162L701,163L702,163L702,164L704,164L704,165L705,165L705,166L707,166L707,167L708,167L708,168L710,168L710,169L711,169L711,170L713,170L713,171L715,171L715,172L716,172L716,173L718,173L718,174L719,174L719,175L721,175L721,176L722,176L722,177L724,177L724,178L725,178L725,179L727,179L727,180L729,180L729,181L730,181L730,182L732,182L732,183L733,183L733,184L735,184L735,185L736,185L736,186L738,186L738,187L740,187L740,188L741,188L741,189L743,189L743,190L744,190L744,191L746,191L746,192L747,192L747,193L749,193L749,194L751,194L751,195L752,195L752,196L754,196L754,292L755,292L755,293L756,293L756,295L757,295L757,296L758,296L758,297L759,297L759,299L760,299L760,300L761,300L761,301L762,301L762,303L763,303L763,304L764,304L764,305L765,305L765,306L766,306L766,307L767,307L767,309L768,309L768,310L769,310L769,311L770,311L770,313L771,313L771,314L772,314L772,315L773,315L773,316L774,316L774,317L775,317L775,319L776,319L776,320L777,320L777,321L778,321L778,323L779,323L779,324L780,324L780,325L781,325L781,326L782,326L782,328L783,328L783,329L784,329L784,330L785,330L785,331L786,331L786,333L787,333L787,334L788,334L788,335L789,335L789,336L790,336L790,338L791,338L791,339L792,339L792,340L793,340L793,341L794,341L794,343L795,343L795,344L796,344L796,345L797,345L797,347L798,347L798,348L799,348L799,349L800,349L800,350L801,350L801,351L802,351L802,353L803,353L803,354L804,354L804,355L805,355L805,356L806,356L806,357L807,357L807,359L808,359L808,360L809,360L809,361L810,361L810,362L813,362L813,361L814,361L814,360L815,360L815,359L816,359L816,358L817,358L817,357L818,357L818,356L819,356L819,355L820,355L820,245L821,245L821,244L822,244L822,245L824,245L824,246L825,246L825,247L827,247L827,248L828,248L828,249L830,249L830,250L831,250L831,251L833,251L833,252L834,252L834,253L836,253L836,254L837,254L837,255L839,255L839,256L840,256L840,257L842,257L842,258L844,258L844,259L845,259L845,260L847,260L847,261L848,261L848,262L849,262L849,263L851,263L851,264L853,264L853,265L854,265L854,266L856,266L856,267L857,267L857,268L859,268L859,269L860,269L860,270L862,270L862,271L863,271L863,272L865,272L865,273L866,273L866,274L868,274L868,275L869,275L869,276L871,276L871,277L873,277L873,278L874,278L874,279L876,279L876,280L877,280L877,281L879,281L879,282L880,282L880,283L882,283L882,284L883,284L883,285L885,285L885,286L886,286L886,287L888,287L888,288L889,288L889,289L891,289L891,290L892,290L892,291L894,291L894,292L895,292L895,293L897,293L897,294L898,294L898,295L900,295L900,296L901,296L901,297L903,297L903,298L904,298L904,299L906,299L906,300L907,300L907,301L908,301L908,393L907,393L907,395L906,395L906,396L904,396L904,398L903,398L903,399L902,399L902,400L900,400L900,401L899,401L899,402L898,402L898,403L897,403L897,404L896,404L896,405L895,405L895,406L894,406L894,407L893,407L893,408L892,408L892,409L891,409L891,410L890,410L890,411L889,411L889,412L888,412L888,413L887,413L887,414L886,414L886,415L885,415L885,416L884,416L884,417L883,417L883,418L882,418L882,419L881,419L881,420L880,420L880,421L879,421L879,422L878,422L878,423L877,423L877,424L876,424L876,425L875,425L875,426L874,426L874,427L873,427L873,428L872,428L872,429L871,429L871,431L870,431L870,432L871,432L871,433L872,433L872,434L873,434L873,435L874,435L874,436L875,436L875,437L876,437L876,438L877,438L877,439L878,439L878,440L879,440L879,441L880,441L880,442L881,442L881,443L882,443L882,444L883,444L883,445L884,445L884,446L885,446L885,447L886,447L886,448L887,448L887,449L888,449L888,450L889,450L889,451L890,451L890,452L891,452L891,453L892,453L892,454L893,454L893,455L894,455L894,456L895,456L895,457L896,457L896,458L897,458L897,459L898,459L898,460L899,460L899,461L900,461L900,462L901,462L901,463L903,463L903,465L904,465L904,466L905,466L905,467L906,467L906,468L907,468L907,469L908,469L908,572L907,572L907,573L905,573L905,574L904,574L904,575L902,575L902,576L900,576L900,577L899,577L899,578L897,578L897,579L896,579L896,580L894,580L894,581L892,581L892,582L890,582L890,583L889,583L889,584L887,584L887,585L886,585L886,586L884,586L884,587L882,587L882,588L881,588L881,589L879,589L879,590L877,590L877,591L876,591L876,592L874,592L874,593L872,593L872,594L871,594L871,595L869,595L869,596L867,596L867,597L865,597L865,598L864,598L864,599L862,599L862,600L861,600L861,601L859,601L859,602L857,602L857,603L856,603L856,604L854,604L854,605L852,605L852,606L851,606L851,607L849,607L849,608L847,608L847,609L846,609L846,610L844,610L844,611L842,611L842,612L841,612L841,613L839,613L839,614L837,614L837,615L836,615L836,616L834,616L834,617L833,617L833,618L831,618L831,619L829,619L829,620L828,620L828,621L826,621L826,622L824,622L824,623L823,623L823,624L820,624L820,621L821,621L821,615L820,615L820,614L821,614L821,577L820,577L820,576L821,576L821,506L820,506L820,491L819,491L819,489L818,489L818,488L817,488L817,487L816,487L816,486L814,486L814,487L813,487L813,488L812,488L812,489L811,489L811,490L810,490L810,491L809,491L809,492L808,492L808,493L807,493L807,494L806,494L806,495L805,495L805,496L804,496L804,497L803,497L803,498L802,498L802,499L801,499L801,500L800,500L800,501L799,501L799,502L798,502L798,504L796,504L796,505L795,505L795,506L794,506L794,507L793,507L793,508L792,508L792,509L791,509L791,510L790,510L790,511L789,511L789,512L788,512L788,513L787,513L787,514L786,514L786,515L785,515L785,516L784,516L784,517L783,517L783,518L782,518L782,519L781,519L781,520L780,520L780,521L779,521L779,522L778,522L778,523L777,523L777,524L776,524L776,525L775,525L775,526L774,526L774,527L773,527L773,528L772,528L772,529L771,529L771,530L770,530L770,531L769,531L769,532L768,532L768,533L767,533L767,534L766,534L766,535L765,535L765,536L764,536L764,537L763,537L763,538L762,538L762,539L761,539L761,540L760,540L760,541L759,541L759,542L758,542L758,543L757,543L757,544L756,544L756,545L755,545L755,546L754,546L754,658L753,658L753,659L751,659L751,660L749,660L749,661L747,661L747,662L745,662L745,663L744,663L744,664L742,664L742,665L740,665L740,666L738,666L738,667L736,667L736,668L735,668L735,669L733,669L733,670L731,670L731,671L729,671L729,672L727,672L727,673L726,673L726,674L724,674L724,675L722,675L722,676L720,676L720,677L719,677L719,678L717,678L717,679L715,679L715,680L713,680L713,681L712,681L712,682L710,682L710,683L708,683L708,684L706,684L706,685L705,685L705,686L703,686L703,687L701,687L701,688L699,688L699,689L698,689L698,690L696,690L696,691L694,691L694,692L692,692L692,693L690,693L690,694L689,694L689,695L687,695L687,696L685,696L685,697L684,697L684,698L682,698L682,699L680,699L680,700L678,700L678,701L677,701L677,702L675,702L675,703L673,703L673,704L671,704L671,705L670,705L670,706L668,706L668,707L666,707L666,708L665,708L665,709L662,709L662,513L663,513L663,512L664,512L664,511L665,511L665,510L667,510L667,508L668,508L668,507L669,507L669,506L671,506L671,504L672,504L672,503L673,503L673,502L674,502L674,501L676,501L676,499L678,499L678,498L679,498L679,496L681,496L681,495L682,495L682,493L683,493L683,492L684,492L684,491L686,491L686,490L687,490L687,489L688,489L688,488L689,488L689,487L690,487L690,485L691,485L691,484L692,484L692,483L693,483L693,482L695,482L695,480L696,480L696,479L697,479L697,478L698,478L698,477L699,477L699,476L700,476L700,475L702,475L702,474L703,474L703,473L704,473L704,472L705,472L705,471L706,471L706,470L707,470L707,469L708,469L708,468L709,468L709,467L710,467L710,466L711,466L711,464L713,464L713,463L714,463L714,462L715,462L715,460L717,460L717,459L718,459L718,458L719,458L719,457L720,457L720,456L721,456L721,455L722,455L722,453L723,453L723,452L724,452L724,451L726,451L726,450L727,450L727,448L729,448L729,447L730,447L730,446L731,446L731,445L732,445L732,444L733,444L733,443L734,443L734,442L735,442L735,440L736,440L736,439L737,439L737,438L738,438L738,437L739,437L739,436L740,436L740,435L742,435L742,434L743,434L743,432L744,432L744,431L745,431L745,430L746,430L746,429L747,429L747,428L749,428L749,427L750,427L750,426L751,426L751,425L752,425L752,424L753,424L753,422L752,422L752,421L751,421L751,419L750,419L750,418L749,418L749,417L748,417L748,415L747,415L747,414L746,414L746,413L745,413L745,412L744,412L744,411L743,411L743,409L742,409L742,408L741,408L741,407L740,407L740,405L739,405L739,404L738,404L738,403L737,403L737,402L736,402L736,400L735,400L735,399L734,399L734,398L733,398L733,397L732,397L732,395L731,395L731,394L730,394L730,393L729,393L729,391L728,391L728,390L727,390L727,389L726,389L726,388L725,388L725,386L724,386L724,385L723,385L723,384L722,384L722,382L721,382L721,381L720,381L720,380L719,380L719,379L718,379L718,377L717,377L717,376L716,376L716,375L715,375L715,374L714,374L714,372L713,372L713,371L712,371L712,370L711,370L711,369L710,369L710,367L709,367L709,366L708,366L708,365L707,365L707,364L706,364L706,362L705,362L705,361L704,361L704,360L703,360L703,359L702,359L702,357L701,357L701,356L700,356L700,355L699,355L699,353L698,353L698,352L697,352L697,351L696,351L696,350L695,350L695,349L694,349L694,347L693,347L693,346L692,346L692,345L691,345L691,344L690,344L690,342L689,342L689,341L688,341L688,340L687,340L687,338L686,338L686,337L685,337L685,336L684,336L684,335L683,335L683,333L682,333L682,332L681,332L681,331L680,331L680,330L679,330L679,328L678,328L678,327L677,327L677,326L676,326L676,325L675,325L675,323L674,323L674,322L673,322L673,321L672,321L672,320L671,320L671,318L670,318L670,317L669,317L669,316L668,316L668,315L667,315L667,313L666,313L666,312L665,312L665,311L664,311L664,310L663,310L663,309L662,309ZM246,140L247,140L247,710L245,710L245,709L244,709L244,708L242,708L242,707L240,707L240,706L239,706L239,705L237,705L237,704L235,704L235,703L233,703L233,702L232,702L232,701L230,701L230,700L228,700L228,699L227,699L227,698L225,698L225,697L223,697L223,696L222,696L222,695L220,695L220,694L218,694L218,693L216,693L216,692L215,692L215,691L213,691L213,690L211,690L211,689L210,689L210,688L208,688L208,687L206,687L206,686L204,686L204,685L202,685L202,684L201,684L201,683L199,683L199,682L197,682L197,681L195,681L195,680L194,680L194,679L192,679L192,678L190,678L190,677L188,677L188,676L187,676L187,675L185,675L185,674L183,674L183,673L182,673L182,672L180,672L180,671L178,671L178,670L177,670L177,669L175,669L175,668L173,668L173,667L172,667L172,666L170,666L170,665L168,665L168,664L166,664L166,663L165,663L165,662L163,662L163,661L161,661L161,660L159,660L159,659L158,659L158,658L157,658L157,456L90,456L90,625L88,625L88,624L87,624L87,623L85,623L85,622L83,622L83,621L82,621L82,620L80,620L80,619L78,619L78,618L77,618L77,617L75,617L75,616L73,616L73,615L72,615L72,614L70,614L70,613L68,613L68,612L66,612L66,611L65,611L65,610L63,610L63,609L62,609L62,608L60,608L60,607L58,607L58,606L57,606L57,605L55,605L55,604L53,604L53,603L52,603L52,602L50,602L50,601L48,601L48,600L46,600L46,599L45,599L45,598L43,598L43,597L41,597L41,596L40,596L40,595L38,595L38,594L36,594L36,593L35,593L35,592L33,592L33,591L31,591L31,590L30,590L30,589L28,589L28,588L26,588L26,587L24,587L24,586L23,586L23,585L21,585L21,584L20,584L20,583L18,583L18,582L16,582L16,581L15,581L15,580L13,580L13,579L11,579L11,578L10,578L10,577L8,577L8,576L6,576L6,575L5,575L5,574L3,574L3,573L2,573L2,572L1,572L1,300L2,300L2,299L4,299L4,298L5,298L5,297L7,297L7,296L8,296L8,295L10,295L10,294L11,294L11,293L13,293L13,292L15,292L15,291L16,291L16,290L18,290L18,289L19,289L19,288L21,288L21,287L22,287L22,286L24,286L24,285L26,285L26,284L27,284L27,283L29,283L29,282L30,282L30,281L32,281L32,280L33,280L33,279L35,279L35,278L36,278L36,277L38,277L38,276L39,276L39,275L41,275L41,274L43,274L43,273L44,273L44,272L46,272L46,271L47,271L47,270L49,270L49,269L50,269L50,268L52,268L52,267L53,267L53,266L55,266L55,265L56,265L56,264L58,264L58,263L60,263L60,262L61,262L61,261L63,261L63,260L64,260L64,259L66,259L66,258L67,258L67,257L69,257L69,256L70,256L70,255L72,255L72,254L73,254L73,253L75,253L75,252L77,252L77,251L78,251L78,250L80,250L80,249L81,249L81,248L83,248L83,247L85,247L85,246L86,246L86,245L88,245L88,244L90,244L90,371L157,371L157,196L159,196L159,195L161,195L161,194L163,194L163,193L164,193L164,192L166,192L166,191L167,191L167,190L169,190L169,189L171,189L171,188L172,188L172,187L174,187L174,186L175,186L175,185L177,185L177,184L178,184L178,183L180,183L180,182L182,182L182,181L183,181L183,180L185,180L185,179L186,179L186,178L188,178L188,177L189,177L189,176L191,176L191,175L193,175L193,174L194,174L194,173L196,173L196,172L198,172L198,171L199,171L199,170L201,170L201,169L202,169L202,168L204,168L204,167L205,167L205,166L207,166L207,165L208,165L208,164L210,164L210,163L212,163L212,162L213,162L213,161L215,161L215,160L216,160L216,159L218,159L218,158L219,158L219,157L221,157L221,156L223,156L223,155L224,155L224,154L226,154L226,153L227,153L227,152L229,152L229,151L231,151L231,150L232,150L232,149L234,149L234,148L235,148L235,147L237,147L237,146L239,146L239,145L240,145L240,144L242,144L242,143L243,143L243,142L245,142L245,141L246,141Z"/>
</svg>
